<svg xmlns="http://www.w3.org/2000/svg" width="68" height="86" viewBox="0 0 68 86">
  <defs>
    <style>
      .cls-1 {
        fill: #fff;
        fill-rule: evenodd;
      }
    </style>
  </defs>
  <path id="ico03.svg" class="cls-1" d="M1321.01,2191v-86h46.88l21.1,20.9V2191h-67.98Zm47.73-81.11v15.17h15.31Zm17.36,18.04h-20.25v-20.06h-41.94v80.26h62.19v-60.2Zm-49.6,6.16,1.98,1.96,6.22-4.94a1.455,1.455,0,0,1,2.03.23,1.415,1.415,0,0,1-.23,2.01l-7.23,5.73a1.438,1.438,0,0,1-1.92-.1l-2.9-2.86a1.436,1.436,0,0,1,0-2.03A1.461,1.461,0,0,1,1336.5,2134.09Zm0,15.76,1.98,1.96,6.22-4.93a1.454,1.454,0,0,1,2.03.22,1.426,1.426,0,0,1-.23,2.02l-7.23,5.73a1.438,1.438,0,0,1-1.92-.1l-2.9-2.87a1.436,1.436,0,0,1,0-2.03A1.48,1.48,0,0,1,1336.5,2149.85Zm0,15.77,1.98,1.96,6.22-4.93a1.445,1.445,0,0,1,2.03.22,1.426,1.426,0,0,1-.23,2.02l-7.23,5.73a1.426,1.426,0,0,1-.9.31,1.4,1.4,0,0,1-1.02-.42l-2.9-2.86a1.436,1.436,0,0,1,0-2.03A1.461,1.461,0,0,1,1336.5,2165.62Zm13.44-30.52h23.14a1.43,1.43,0,1,1,0,2.86h-23.14A1.43,1.43,0,1,1,1349.94,2135.1Zm0,15.77h23.14a1.43,1.43,0,1,1,0,2.86h-23.14A1.43,1.43,0,1,1,1349.94,2150.87Zm0,15.76h23.14a1.435,1.435,0,1,1,0,2.87h-23.14A1.435,1.435,0,1,1,1349.94,2166.63Z" transform="translate(-1321 -2105)"/>
</svg>
