<svg xmlns="http://www.w3.org/2000/svg" width="90" height="87" viewBox="0 0 90 87">
  <defs>
    <style>
      .cls-1 {
        fill: #fff;
        fill-rule: evenodd;
      }
    </style>
  </defs>
  <path id="ico02.svg" class="cls-1" d="M965,2190v-2.95h7.793v-24.52h11.133v24.52h9.961v-40.43h11.133v40.43h9.96v-29.82h11.13v29.82h9.96v-51.04h11.14v51.04H1055V2190H965Zm16-24.52h-5.273v21.57H981v-21.57Zm21.094-15.92h-5.274v37.49h5.274v-37.49Zm21.09,10.61h-5.27v26.88h5.27v-26.88Zm21.1-21.21H1039v48.09h5.28v-48.09Zm6.62-30.94-30.36,30.36-21.09-21.22L969.5,2147.13l-2.067-2.09L999.456,2113l21.094,21.22,28.26-28.27H1034.9V2103h18.93v18.86h-2.93v-13.84Z" transform="translate(-965 -2103)"/>
</svg>
