<svg xmlns="http://www.w3.org/2000/svg" width="72" height="94" viewBox="0 0 72 94">
  <defs>
    <style>
      .cls-1 {
        fill: #fff;
        fill-rule: evenodd;
      }
    </style>
  </defs>
  <path id="ico01.svg" class="cls-1" d="M666.313,2197.7a3.021,3.021,0,0,1-2.625,0C644.71,2188.65,629,2178.89,629,2151v-32.32a2.951,2.951,0,0,1,1.975-2.76l33-11.75a3.135,3.135,0,0,1,2.051,0l33,11.75a2.951,2.951,0,0,1,1.975,2.76V2151C701,2178.89,685.291,2188.65,666.313,2197.7Zm31.187-76.96L665,2107.61l-32.5,13.13V2151c0,21.91,12.6,33.57,32.5,43.23,19.9-9.66,32.5-21.32,32.5-43.23v-30.26Zm-47.492,28.18,2.993-2.93,9.878,9.67,18.879-18.48,2.992,2.93-21.871,21.41Z" transform="translate(-629 -2104)"/>
</svg>
