<svg xmlns="http://www.w3.org/2000/svg" width="20" height="20" viewBox="0 0 20 20">
  <defs>
    <style>
      .cls-1 {
        fill: #fff;
        fill-rule: evenodd;
      }
    </style>
  </defs>
  <path id="icon_tel.svg" class="cls-1" d="M1109.61,4993.67l1.28,1.91a0.874,0.874,0,0,1-.19,1.17l-1.57,1.22a0.866,0.866,0,0,0-.23,1.11,14.406,14.406,0,0,0,3.06,3.97,14.149,14.149,0,0,0,3.96,3.05,0.866,0.866,0,0,0,1.11-.23l1.22-1.57a0.874,0.874,0,0,1,1.17-.19l1.97,1.32,2.22,1.48a0.866,0.866,0,0,1,.27,1.17l-1.05,1.75a2.129,2.129,0,0,1-1.26.98c-1.75.48-5.6,0.57-11.77-5.6s-6.08-10.03-5.6-11.78a2.152,2.152,0,0,1,.97-1.26l1.75-1.05a0.878,0.878,0,0,1,1.18.27Zm11.98,6.64a0.346,0.346,0,0,1-.35-0.34,5.87,5.87,0,0,0-5.86-5.87,0.346,0.346,0,0,1-.35-0.34,0.354,0.354,0,0,1,.35-0.35,6.562,6.562,0,0,1,6.55,6.56A0.337,0.337,0,0,1,1121.59,5000.31Zm-2.07,0a0.346,0.346,0,0,1-.35-0.34,3.8,3.8,0,0,0-3.79-3.8,0.346,0.346,0,0,1-.35-0.34,0.354,0.354,0,0,1,.35-0.35,4.494,4.494,0,0,1,4.48,4.49A0.337,0.337,0,0,1,1119.52,5000.31Zm-2.07,0a0.346,0.346,0,0,1-.35-0.34,1.722,1.722,0,0,0-1.72-1.73,0.346,0.346,0,0,1-.35-0.34,0.354,0.354,0,0,1,.35-0.35,2.413,2.413,0,0,1,2.41,2.42A0.337,0.337,0,0,1,1117.45,5000.31Z" transform="translate(-1104 -4991)"/>
</svg>
