<svg xmlns="http://www.w3.org/2000/svg" width="22" height="18" viewBox="0 0 22 18">
  <defs>
    <style>
      .cls-1 {
        fill: #fff;
        fill-rule: evenodd;
      }
    </style>
  </defs>
  <path id="icon_fax.svg" class="cls-1" d="M1319.51,5005.84h-0.01v3.49a0.67,0.67,0,0,0,.67.67h11.66a0.67,0.67,0,0,0,.67-0.67v-3.49h-12.99Zm1.34-10.52h10.28v-0.7h-10.28v0.7Zm0.01,1.38h-0.01v0.72h10.28v-0.72h-10.27Zm12.7,2.22V4992h-15.12v6.92H1315v8.31h3.45v-2.77h15.1v2.77H1337v-8.31h-3.44Zm-11,2.6a0.86,0.86,0,1,1-.86-0.86A0.862,0.862,0,0,1,1322.56,5001.52Zm-2.75,0a0.86,0.86,0,1,1-.86-0.86A0.862,0.862,0,0,1,1319.81,5001.52Zm0.01-2.74v-5.4h12.36v5.4h-12.36Z" transform="translate(-1315 -4992)"/>
</svg>
