<svg xmlns="http://www.w3.org/2000/svg" width="79" height="80" viewBox="0 0 79 80">
  <defs>
    <style>
      .cls-1 {
        fill: #fff;
        fill-rule: evenodd;
      }
    </style>
  </defs>
  <path id="logo-wt.svg" class="cls-1" d="M586.469,4983.57v-1.51H589v4.67c-0.253.05-.554,0.09-0.9,0.14a10.4,10.4,0,0,1-1.173.06,5.46,5.46,0,0,1-1.51-.19,2.808,2.808,0,0,1-1.155-.6,2.755,2.755,0,0,1-.74-1.13,4.9,4.9,0,0,1-.263-1.72v-1.07a5,5,0,0,1,.257-1.72,2.706,2.706,0,0,1,.734-1.13,2.8,2.8,0,0,1,1.155-.6,5.864,5.864,0,0,1,1.509-.19,8.8,8.8,0,0,1,.911.05c0.289,0.04.564,0.08,0.825,0.14v1.59a4.085,4.085,0,0,0-.7-0.14,5.48,5.48,0,0,0-.752-0.05,4.328,4.328,0,0,0-.746.06,1.187,1.187,0,0,0-.978.8,2.912,2.912,0,0,0-.134.99v1.47a2.912,2.912,0,0,0,.134.99,1.283,1.283,0,0,0,.367.55,1.069,1.069,0,0,0,.525.25,3.054,3.054,0,0,0,.612.06h0.116c0.036,0,.1-0.01.189-0.01v-1.76h-0.807Zm-8.21-52.15a21.619,21.619,0,0,0-36.166,20.9,22.818,22.818,0,1,1,41.755,0A21.572,21.572,0,0,0,578.259,4931.42ZM561.8,4915.77a25.081,25.081,0,0,0-12.511,46.83,26.482,26.482,0,1,1,34.276-34.25A25.092,25.092,0,0,0,561.8,4915.77Zm-24.431,1.14a28.442,28.442,0,0,0,27.545,47.56,30.028,30.028,0,1,1,0-54.92A28.475,28.475,0,0,0,537.372,4916.91Zm23.243,42.72a14.455,14.455,0,1,1,14.468-14.46A14.462,14.462,0,0,1,560.615,4959.63Zm-41.339-22.5a31.95,31.95,0,0,0,59.639,15.91,33.715,33.715,0,1,1-43.619-43.58A31.9,31.9,0,0,0,519.276,4937.13Zm-3.188,41.55-2.641,3.84,2.739,4.31h-2.225l-2.079-3.31v3.31H510v-8.15h1.882v3.06l2.054-3.06h2.152Zm4.129,3.2,1.076-3.2h1.956l-2.054,5.23v2.92h-2.054v-2.92l-2.053-5.23h2.065Zm4.6-2.52a2.424,2.424,0,0,1,.984-0.65,3.935,3.935,0,0,1,1.271-.2,3.976,3.976,0,0,1,1.284.2,2.378,2.378,0,0,1,.978.65,3.013,3.013,0,0,1,.623,1.16,6,6,0,0,1,.22,1.74v0.99a6.153,6.153,0,0,1-.214,1.74,2.954,2.954,0,0,1-.617,1.16,2.378,2.378,0,0,1-.978.65,4.016,4.016,0,0,1-1.3.2,3.974,3.974,0,0,1-1.283-.2,2.424,2.424,0,0,1-.984-0.65,2.982,2.982,0,0,1-.63-1.16,6.03,6.03,0,0,1-.22-1.74v-0.99a5.879,5.879,0,0,1,.226-1.74A3.042,3.042,0,0,1,524.818,4979.36Zm1.229,3.87a9.678,9.678,0,0,0,.042.97,2.567,2.567,0,0,0,.153.69,0.924,0.924,0,0,0,.306.42,0.885,0.885,0,0,0,.513.14,0.941,0.941,0,0,0,.532-0.14,0.913,0.913,0,0,0,.312-0.42,2.408,2.408,0,0,0,.146-0.69c0.025-.27.037-0.6,0.037-0.97v-0.96a5.492,5.492,0,0,0-.189-1.67,0.774,0.774,0,0,0-.813-0.55,0.941,0.941,0,0,0-.532.14,0.863,0.863,0,0,0-.312.42,2.567,2.567,0,0,0-.153.69,9.678,9.678,0,0,0-.042.97v0.96Zm10.4-2.98h-2.787v1.64h2.531v1.57h-2.531v1.8h2.885v1.57h-4.841v-8.15h4.743v1.57Zm4.646,5.01c0.146,0.02.3,0.04,0.47,0.05s0.356,0.02.569,0.02a2.134,2.134,0,0,0,1.057-.2,0.679,0.679,0,0,0,.324-0.63,0.667,0.667,0,0,0-.055-0.29,0.636,0.636,0,0,0-.183-0.22,1.4,1.4,0,0,0-.343-0.2c-0.143-.07-0.32-0.14-0.532-0.23l-0.684-.3a2.856,2.856,0,0,1-.569-0.3,1.739,1.739,0,0,1-.464-0.44,2.069,2.069,0,0,1-.318-0.66,3.2,3.2,0,0,1-.116-0.93,2.413,2.413,0,0,1,.208-1.03,2.005,2.005,0,0,1,.593-0.73,2.8,2.8,0,0,1,.923-0.44,4.453,4.453,0,0,1,1.2-.15c0.366,0,.712.02,1.039,0.05s0.635,0.08.929,0.13v1.58q-0.429-.075-0.831-0.12a8.278,8.278,0,0,0-.917-0.05,2.317,2.317,0,0,0-.868.14,0.548,0.548,0,0,0-.33.55,0.667,0.667,0,0,0,.091.35,0.893,0.893,0,0,0,.263.26,3.878,3.878,0,0,0,.4.21c0.151,0.07.32,0.15,0.508,0.23l0.733,0.33a2.5,2.5,0,0,1,1.033.78,2.181,2.181,0,0,1,.373,1.34c0,1.71-1.076,2.57-3.227,2.57a9.82,9.82,0,0,1-1.174-.06c-0.326-.05-0.644-0.09-0.953-0.15v-1.6c0.146,0.02.289,0.05,0.428,0.08A2.961,2.961,0,0,0,541.1,4985.26Zm7.941-3.55h1.8v-3.03H552.9v8.15h-2.065v-3.38h-1.8v3.38h-2.053v-8.15h2.053v3.03Zm7.62,5.12H554.6v-8.15h2.054v8.15Zm7.136-5.72a2.941,2.941,0,0,1-.2,1.14,1.655,1.655,0,0,1-.667.78,1.23,1.23,0,0,1,.5.62,2.473,2.473,0,0,1,.146.87v2.31h-1.931v-2.18a1.519,1.519,0,0,0-.1-0.58,0.464,0.464,0,0,0-.483-0.26H560.3v3.02h-1.931v-8.15h2.958A2.165,2.165,0,0,1,563.792,4981.11Zm-3.5-.89v2.14h0.819a0.557,0.557,0,0,0,.465-0.23,1.459,1.459,0,0,0,.171-0.82,1.5,1.5,0,0,0-.177-0.86,0.6,0.6,0,0,0-.5-0.23H560.3Zm10.408,0.89a2.922,2.922,0,0,1-.2,1.14,1.647,1.647,0,0,1-.666.78,1.233,1.233,0,0,1,.5.62,2.451,2.451,0,0,1,.147.87v2.31h-1.932v-2.18a1.52,1.52,0,0,0-.1-0.58,0.465,0.465,0,0,0-.483-0.26h-0.758v3.02h-1.932v-8.15h2.959A2.165,2.165,0,0,1,570.7,4981.11Zm-3.5-.89v2.14h0.819a0.557,0.557,0,0,0,.464-0.23,1.457,1.457,0,0,0,.172-0.82,1.5,1.5,0,0,0-.178-0.86,0.6,0.6,0,0,0-.5-0.23h-0.782Zm7.027,6.61h-2.053v-8.15h2.053v8.15Zm5.6-3.73v-4.42h1.894v8.15H580.1l-2.262-4.26v4.26h-1.9v-8.15h1.626Z" transform="translate(-510 -4907)"/>
</svg>
